HIERARCHY
ROOT root     
{
	OFFSET 0.0000 0.0000 0.0000
	CHANNELS 6 Xposition Yposition Zposition Zrotation Yrotation Xrotation
	JOINT pelvis   
	{
		OFFSET 0.0000 0.0000 0.0000
		CHANNELS 3 Zrotation Yrotation Xrotation
		JOINT thorax   
		{
			OFFSET 0.0000 23.0750 -5.0000
			CHANNELS 3 Zrotation Yrotation Xrotation
			JOINT rclavicle
			{
				OFFSET 0.0000 28.0009 0.0000
				CHANNELS 3 Zrotation Yrotation Xrotation
				JOINT rhumerus 
				{
					OFFSET -18.5725 5.5939 0.0000
					CHANNELS 3 Zrotation Yrotation Xrotation
					JOINT rradius  
					{
						OFFSET -24.8459 0.0000 0.0000
						CHANNELS 3 Zrotation Yrotation Xrotation
						JOINT rhand    
						{
							OFFSET -24.5477 0.0000 0.0000
							CHANNELS 3 Zrotation Yrotation Xrotation
							End Site
							{
								OFFSET -8.1826 0.0000 0.0000
							}
						}
					}
				}
			}
			JOINT lclavicle
			{
				OFFSET 0.0000 28.0009 0.0000
				CHANNELS 3 Zrotation Yrotation Xrotation
				JOINT lhumerus 
				{
					OFFSET 18.5725 5.5939 0.0000
					CHANNELS 3 Zrotation Yrotation Xrotation
					JOINT lradius  
					{
						OFFSET 24.8459 0.0000 0.0000
						CHANNELS 3 Zrotation Yrotation Xrotation
						JOINT lhand    
						{
							OFFSET 24.5477 0.0000 0.0000
							CHANNELS 3 Zrotation Yrotation Xrotation
							End Site
							{
								OFFSET 8.1826 0.0000 0.0000
							}
						}
					}
				}
			}
			JOINT head     
			{
				OFFSET 0.0000 35.2030 0.0000
				CHANNELS 3 Zrotation Yrotation Xrotation
				End Site
				{
					OFFSET 0.0000 11.7343 0.0000
				}
			}
		}
		JOINT rfemur   
		{
			OFFSET -8.2817 0.0000 0.0000
			CHANNELS 3 Zrotation Yrotation Xrotation
			JOINT rtibia   
			{
				OFFSET 0.0000 -43.3627 0.0000
				CHANNELS 3 Zrotation Yrotation Xrotation
				JOINT rfoot    
				{
					OFFSET 0.0000 -38.2947 0.0000
					CHANNELS 3 Zrotation Yrotation Xrotation
					JOINT rtoes    
					{
						OFFSET 0.0000 0.0000 16.6054
						CHANNELS 3 Zrotation Yrotation Xrotation
						End Site
						{
							OFFSET 0.0000 0.0000 5.5351
						}
					}
				}
			}
		}
		JOINT lfemur   
		{
			OFFSET 8.2817 0.0000 0.0000
			CHANNELS 3 Zrotation Yrotation Xrotation
			JOINT ltibia   
			{
				OFFSET 0.0000 -43.3627 0.0000
				CHANNELS 3 Zrotation Yrotation Xrotation
				JOINT lfoot    
				{
					OFFSET 0.0000 -38.2947 0.0000
					CHANNELS 3 Zrotation Yrotation Xrotation
					JOINT ltoes    
					{
						OFFSET 0.0000 0.0000 16.6054
						CHANNELS 3 Zrotation Yrotation Xrotation
						End Site
						{
							OFFSET 0.0000 0.0000 5.5351
						}
					}
				}
			}
		}
	}
}
MOTION
Frames: 21
Frame Time: .0333333
-41.123 78.151 7.0615 -153.077 -88.2936 172.144 0 -0 0 1.09599 -17.4422 16.9087 20.3488 -20.2381 -0.00018466 52.6337 -26.0657 1.12703 -1.33086e-06 79.9961 -1.11661e-06 2.33816 8.25465 0.168698 -9.28165 18.7091 -3.53717e-05 -44.0789 4.40558 -16.1363 180 -60.2875 -180 -4.78285 3.24949 -0.135698 6.91467 5.50797 -16.5901 13.569 -10.3414 -58.7346 -0 -0 36.5848 -1.94773e-08 -0.0863 6.49869 -0.0098 7.09368e-08 -50.0835 -1.15741 15.0053 -13.6517 -0 -0 49.7143 -2.06548e-06 3.85891 -8.87428 -0.596203 -4.57152e-06 -68.8754 
-42.459 77.907 6.9569 -158.062 -88.2081 177.003 0 -0 0 1.26762 -17.7376 16.7409 20.1447 -20.3827 -0.000177644 52.328 -26.329 1.09242 -1.25521e-06 81.0151 -1.46931e-06 2.44934 8.18877 0.175403 -9.21979 18.7887 1.09904e-05 -44.0812 5.21818 -16.1257 180 -59.9382 180 -5.03188 3.24496 -0.142597 6.82199 5.56572 -16.4341 13.151 -10.0049 -58.5613 -0 -0 37.7881 -2.42449e-07 0.379999 6.54876 0.0433001 -2.55092e-07 -45.4352 -0.868433 14.9511 -12.4002 -0 -0 49.3769 -2.83652e-06 3.53521 -8.23817 -0.507201 -5.21277e-07 -70.3098 
-43.797 77.659 6.8495 -162.023 -88.0474 -179.172 0 -0 0 1.47323 -17.9835 16.5687 19.9655 -20.4907 0.000101428 51.9869 -26.483 1.07091 -4.08511e-06 81.9676 -4.24175e-06 2.52096 8.11848 0.178897 -9.19311 18.8407 1.91403e-05 -44.1219 6.03481 -16.0631 180 -59.6488 180 -5.31028 3.22706 -0.149698 6.69195 5.6012 -16.2737 12.7151 -9.64104 -58.4925 -0 -0 39.4345 5.81973e-08 0.864792 6.18628 0.0931994 -5.24531e-07 -39.0389 -0.561424 14.876 -11.1779 -0 -0 49.0862 7.26835e-07 3.20653 -7.53857 -0.421104 5.64226e-06 -71.8108 
-45.135 77.415 6.738 -164.72 -87.864 -176.609 0 -0 0 1.71801 -18.1859 16.4027 19.8247 -20.5619 0.000103593 51.6086 -26.5182 1.05873 -2.22929e-06 82.8593 -1.96738e-06 2.54868 8.04286 0.179198 -9.20109 18.8665 -3.15821e-06 -44.2086 6.84317 -15.9543 180 -59.4269 180 -5.6109 3.19952 -0.156802 6.5307 5.60985 -16.1195 12.2998 -9.27593 -58.504 -0 -0 41.4177 -9.99558e-07 1.3481 5.40387 0.127002 5.34913e-08 -31.1165 -0.231465 14.7571 -9.99587 -0 -0 48.8536 4.53939e-06 2.86766 -6.75536 -0.337603 2.3819e-06 -73.3676 
-46.465 77.18 6.6199 -166.043 -87.6584 -175.416 0 -0 0 2.01195 -18.3504 16.2495 19.7348 -20.5957 1.68564e-05 51.1961 -26.4269 1.05006 -2.24024e-06 83.6775 -2.50206e-06 2.531 7.96213 0.1762 -9.2435 18.8634 -3.74796e-05 -44.3515 7.6283 -15.8005 180 -59.2775 180 -5.92323 3.16748 -0.163904 6.34736 5.58641 -15.9819 11.9375 -8.9247 -58.562 -0 -0 43.592 2.13382e-06 1.78495 4.29808 0.133796 -1.83054e-06 -22.6251 0.125876 14.5735 -8.87878 -0 -0 48.6986 6.85341e-07 2.5119 -5.86784 -0.257004 4.37144e-06 -74.9399 
-47.781 76.962 6.4944 -166.201 -87.4461 -175.383 0 -0 0 2.35551 -18.4813 16.1131 19.7045 -20.5945 -0.000160941 50.7513 -26.2043 1.03743 -2.30457e-06 84.4374 -2.09089e-06 2.46776 7.87938 0.169996 -9.31519 18.8319 -5.91728e-05 -44.558 8.37589 -15.5979 180 -59.2139 180 -6.23306 3.1382 -0.170898 6.1562 5.52463 -15.8659 11.6455 -8.59842 -58.6311 -0 -0 45.8262 3.93194e-07 2.13431 2.97702 0.1109 -9.25212e-08 -14.4471 0.506617 14.303 -7.85202 -0 -0 48.6398 -1.96926e-06 2.13344 -4.85661 -0.180698 3.30092e-06 -76.4565 
-49.074 76.765 6.3578 -165.228 -87.2476 -176.454 0 -0 0 2.76376 -18.5813 15.9833 19.74 -20.5602 6.14859e-05 50.282 -25.8533 1.01097 -2.61097e-06 85.1162 -2.39734e-06 2.363 7.79782 0.1611 -9.41392 18.7703 5.35592e-05 -44.836 9.06791 -15.3425 -180 -59.2406 180 -6.52566 3.11909 -0.177898 5.97102 5.41766 -15.7743 11.4296 -8.27964 -58.6757 -0 -0 47.985 9.92252e-07 2.34105 1.63012 0.0666007 3.62889e-08 -8.16259 0.914653 13.9329 -6.95783 -0 -0 48.7065 5.39173e-07 1.72408 -3.7126 -0.111702 3.97954e-07 -77.8186 
-50.339 76.595 6.2104 -163.399 -87.0659 -178.356 0 -0 0 3.22846 -18.6551 15.8578 19.8477 -20.4987 1.93905e-05 49.799 -25.3766 0.963248 -5.50426e-06 85.7237 -5.93144e-06 2.22107 7.72373 0.149906 -9.53092 18.6786 3.12161e-05 -45.1899 9.68818 -15.0258 180 -59.3696 180 -6.78409 3.11765 -0.184803 5.81006 5.2593 -15.7075 11.2971 -7.9839 -58.6743 -0 -0 49.9985 4.12888e-09 2.39538 0.266002 0.0111002 -4.43126e-09 -3.61141 1.33924 13.4542 -6.22094 -0 -0 48.9156 1.13372e-07 1.28397 -2.43233 -0.0544993 -1.74924e-07 -78.9 
-51.569 76.455 6.0523 -160.792 -86.932 179.01 0 -0 0 3.74703 -18.7052 15.7297 20.0262 -20.4144 2.72618e-05 49.3176 -24.7841 0.883977 -3.86118e-06 86.2406 -4.12276e-06 2.04921 7.66267 0.137199 -9.65847 18.5568 -5.45775e-05 -45.6216 10.226 -14.6401 180 -59.607 180 -6.99179 3.13895 -0.191799 5.68884 5.04419 -15.6613 11.2473 -7.71223 -58.6149 -0 -0 51.8022 -5.31549e-07 2.28923 -1.07419 -0.0428999 4.01643e-10 -0.868604 1.77428 12.8683 -5.66962 -0 -0 49.2876 -1.43887e-08 0.819194 -1.02832 -0.0147 3.96028e-09 -79.5595 
-52.76 76.345 5.8856 -157.589 -86.8258 175.817 0 -0 0 4.30555 -18.7303 15.5932 20.2723 -20.31 -7.3025e-05 48.8567 -24.0872 0.766017 -1.79365e-06 86.6843 -1.90043e-06 1.85525 7.62061 0.123597 -9.78825 18.4025 2.7946e-06 -46.1272 10.6708 -14.1759 180 -59.9625 180 -7.1346 3.1855 -0.198599 5.62176 4.76953 -15.6319 11.275 -7.47887 -58.4896 -0 -0 53.365 2.87572e-07 2.03501 -2.38517 179.915 -3.26483e-09 -0.427603 2.20736 12.186 -5.31867 -0 -0 49.8316 -6.69448e-09 0.348099 0.472701 0.00290003 2.1424e-08 -79.6453 
-53.912 76.267 5.7133 -153.922 -86.7775 172.208 0 -0 0 4.88712 -18.7316 15.4473 20.5737 -20.1895 9.4391e-05 48.4362 -23.303 0.602302 -0 87.0552 -0 1.64729 7.60223 0.1095 -9.91265 18.2155 2.01826e-05 -46.7026 11.0185 -13.628 180 -60.4353 180 -7.20098 3.2563 -0.204904 5.61886 4.43405 -15.6114 11.3663 -7.29176 -58.2964 -0 -0 54.6714 -1.04297e-06 1.65491 -3.64752 179.895 6.88924e-10 -0.580094 2.62804 11.4275 -5.17394 -0 -0 50.5496 1.31117e-08 -0.1003 2.02908 -0.00350002 4.99367e-08 -79.0225 
-55.025 76.219 5.541 -150.048 -86.7641 168.426 0 -0 0 5.46115 -18.7053 15.2887 20.9216 -20.0542 -0.000194672 48.0746 -22.4479 0.390838 -2.32807e-06 87.3039 -2.2213e-06 1.43297 7.61208 0.0952968 -10.0234 17.9992 7.64111e-05 -47.3381 11.2708 -12.9925 180 -61.0325 -180 -7.18484 3.34592 -0.210103 5.68981 4.04284 -15.5955 11.4934 -7.15727 -58.0432 -0 -0 55.7207 -2.58686e-06 1.18286 -4.83192 -0.0995992 1.03854e-09 -0.195504 3.01215 10.6168 -5.23295 -0 -0 51.4308 -3.48374e-07 -0.471499 3.58163 -0.0294992 6.2292e-08 -77.618 
-56.099 76.199 5.3689 -145.768 -86.799 164.274 0 -0 0 6.03062 -18.6461 15.1205 21.2945 -19.9066 -2.21751e-05 47.7961 -21.533 0.127007 -1.29251e-05 87.5027 -1.31251e-05 1.21779 7.64357 0.0813987 -10.1234 17.7502 9.9578e-06 -48.0209 11.4274 -12.2663 -180 -61.7554 180 -7.08375 3.44806 -0.213499 5.82611 3.59629 -15.5809 11.6491 -7.06903 -57.7326 -0 -0 56.5309 -1.96007e-07 0.650202 -5.90503 -0.0669003 2.22959e-08 -1.68926 3.37435 9.80198 -5.48727 -0 -0 52.4747 -4.66816e-07 -0.740603 5.07232 -0.0654991 3.35593e-07 -75.2808 
-57.136 76.206 5.1993 -141.119 -86.8589 159.784 0 -0 0 6.58426 -18.5488 14.9443 21.6751 -19.744 -4.44728e-05 47.6173 -20.5741 -0.187089 -3.51549e-06 87.5893 -3.66645e-06 1.00669 7.69644 0.067699 -10.2157 17.4721 -2.19632e-05 -48.7354 11.5009 -11.4572 -180 -62.605 180 -6.90323 3.55116 -0.214295 6.02103 3.10475 -15.5657 11.8145 -7.01815 -57.375 -0 -0 57.1241 3.88483e-08 0.0949996 -6.84974 -0.0112998 5.39451e-09 -3.59965 3.71096 9.0235 -5.92923 -0 -0 53.6628 9.71078e-07 -0.837791 6.41994 -0.0937003 -3.99523e-07 -72.1298 
-58.139 76.237 5.0406 -136.566 -86.9531 155.408 0 -0 0 7.07569 -18.4101 14.7691 22.0513 -19.5588 4.52868e-05 47.5559 -19.5848 -0.548039 -6.91067e-06 87.5982 -6.62819e-06 0.800203 7.76451 0.0543003 -10.2945 17.1695 -1.06563e-05 -49.4673 11.5016 -10.5706 180 -63.5799 180 -6.65536 3.64547 -0.212 6.27145 2.58184 -15.5479 11.9482 -7.00782 -56.9862 -0 -0 57.5544 9.21341e-07 -0.435001 -7.6719 0.0580996 -2.54118e-08 -5.57439 3.98691 8.3109 -6.53233 -0 -0 54.966 1.86339e-08 -0.700703 7.57222 -0.0923004 2.41926e-07 -68.2653 
-59.11 76.29 4.8922 -131.992 -87.0801 151.03 0 -0 0 7.51127 -18.2245 14.6013 22.4044 -19.348 2.10837e-05 47.6173 -18.5724 -0.949908 -0 87.5511 -0 0.5963 7.8372 0.0407999 -10.3706 16.8448 -6.22964e-05 -50.2026 11.4419 -9.61845 180 -64.6788 180 -6.3558 3.72192 -0.206696 6.55716 2.03803 -15.5292 12.0461 -7.02294 -56.5779 -0 -0 57.8602 4.79831e-07 -0.912004 -8.37482 0.132798 -1.13532e-07 -7.33455 4.21474 7.70681 -7.28296 -0 -0 56.3646 4.87924e-07 -0.293597 8.48077 -0.0432989 -1.04439e-07 -63.8982 
-60.051 76.364 4.756 -127.63 -87.2099 146.871 0 -0 0 7.88058 -17.9872 14.4495 22.7234 -19.1027 2.52837e-05 47.8091 -17.5417 -1.38403 -3.44182e-06 87.4344 -3.29087e-06 0.389294 7.90367 0.0268996 -10.4495 16.5028 -8.49259e-06 -50.926 11.3373 -8.61431 180 -65.8959 180 -6.02368 3.77356 -0.198602 6.86084 1.48703 -15.5107 12.0961 -7.05315 -56.1619 -0 -0 58.0845 1.6718e-06 -1.31062 -8.98445 0.204705 1.17044e-07 -8.55507 4.38932 7.23923 -8.1625 -0 -0 57.834 2.03486e-07 0.410701 9.11617 0.0651 -4.09734e-07 -59.2708 
-60.965 76.459 4.6324 -123.583 -87.3601 143.032 0 -0 0 8.18443 -17.6976 14.3208 22.9967 -18.8181 5.85632e-05 48.122 -16.496 -1.83873 -3.76407e-06 87.2407 -3.94901e-06 0.1705 7.95329 0.0119 -10.5389 16.1481 -7.87141e-06 -51.6278 11.201 -7.5727 180 -67.2307 180 -5.6793 3.79717 -0.188398 7.162 0.941911 -15.4938 12.0944 -7.08964 -55.7464 -0 -0 58.262 -3.05921e-06 -1.61884 -9.50874 0.267497 -8.2624e-07 -9.2046 4.51137 6.92662 -9.15632 -0 -0 59.3472 -2.76804e-06 1.41651 9.46631 0.232999 -2.65509e-07 -54.6293 
-61.851 76.575 4.5203 -120 -87.4902 139.659 0 -0 0 8.4302 -17.3566 14.2162 23.2195 -18.4864 -0.000115332 48.5474 -15.436 -2.30116 -2.00272e-06 87.0302 -2.10947e-06 -0.0705989 7.97826 -0.00489993 -10.6459 15.7858 -1.71745e-05 -52.3001 11.0462 -6.50889 -180 -68.6803 180 -5.34205 3.79323 -0.176999 7.44006 0.413675 -15.4796 12.0464 -7.12197 -55.3436 -0 -0 58.4151 -1.11075e-06 -1.83679 -9.95003 0.317496 -6.4373e-07 -9.39687 4.5862 6.77661 -10.2556 -0 -0 60.8822 2.92409e-06 2.70469 9.5375 0.448505 7.87175e-06 -50.2514 
-62.711 76.71 4.4199 -117.094 -87.6342 136.968 0 -0 0 8.61789 -16.9668 14.141 23.3869 -18.1033 -8.67733e-05 49.0675 -14.3606 -2.75546 -4.10437e-06 86.7637 -4.3431e-06 -0.346192 7.97237 -0.0240995 -10.7727 15.4215 1.14522e-05 -52.9364 10.8842 -5.43521 180 -70.2408 180 -5.02691 3.76517 -0.165299 7.67828 -0.0871111 -15.4676 11.9547 -7.14933 -54.9547 -0 -0 58.562 5.72962e-06 -1.96872 -10.3152 0.352599 -7.64589e-07 -9.27122 4.61068 6.78442 -11.448 -0 -0 62.4145 -5.21492e-06 4.23517 9.33558 0.688192 -9.33119e-07 -46.1819 
-63.546 76.866 4.3293 -114.936 -87.7593 135.025 0 -0 0 8.75962 -16.5329 14.0961 23.5006 -17.6663 6.64775e-05 49.662 -13.2702 -3.18619 -8.8125e-06 86.4673 -9.06103e-06 -0.667093 7.93517 -0.0462996 -10.9223 15.0588 -8.90988e-05 -53.5379 10.7236 -4.36332 -180 -71.9129 180 -4.74455 3.7201 -0.154197 7.86091 -0.55454 -15.4556 11.8335 -7.17181 -54.5844 -0 -0 58.7006 6.64601e-07 -2.02857 -10.6052 0.373504 7.00051e-07 -9.03019 4.59153 6.9361 -12.7302 -0 -0 63.9279 -2.85737e-06 5.9486 8.88877 0.922404 7.03248e-07 -42.5967 
